<svg width="25" height="24" viewBox="0 0 25 24" fill="none" xmlns="http://www.w3.org/2000/svg">
<path d="M12.1469 16.33C9.72767 16.33 7.76392 14.39 7.76392 12C7.76392 9.61 9.72767 7.67 12.1469 7.67C14.5662 7.67 16.53 9.61 16.53 12C16.53 14.39 14.5662 16.33 12.1469 16.33ZM12.1469 9.17C10.5678 9.17 9.28228 10.44 9.28228 12C9.28228 13.56 10.5678 14.83 12.1469 14.83C13.726 14.83 15.0116 13.56 15.0116 12C15.0116 10.44 13.726 9.17 12.1469 9.17Z" fill="#FD7A22"/>
<path d="M12.1469 21.02C8.34089 21.02 4.74742 18.82 2.27754 15C1.20456 13.35 1.20456 10.66 2.27754 9C4.75754 5.18 8.35101 2.98 12.1469 2.98C15.9428 2.98 19.5363 5.18 22.0062 9C23.0792 10.65 23.0792 13.34 22.0062 15C19.5363 18.82 15.9428 21.02 12.1469 21.02ZM12.1469 4.48C8.87738 4.48 5.74954 6.42 3.56309 9.81C2.80391 10.98 2.80391 13.02 3.56309 14.19C5.74954 17.58 8.87738 19.52 12.1469 19.52C15.4165 19.52 18.5443 17.58 20.7308 14.19C21.49 13.02 21.49 10.98 20.7308 9.81C18.5443 6.42 15.4165 4.48 12.1469 4.48Z" fill="#FD7A22"/>
</svg>
