<svg width="25" height="24" viewBox="0 0 25 24" fill="none" xmlns="http://www.w3.org/2000/svg">
<path d="M12.1469 14.17C9.99086 14.17 8.22955 12.44 8.22955 10.3C8.22955 8.16 9.99086 6.44 12.1469 6.44C14.303 6.44 16.0643 8.17 16.0643 10.31C16.0643 12.45 14.303 14.17 12.1469 14.17ZM12.1469 7.94C10.831 7.94 9.74792 9 9.74792 10.31C9.74792 11.62 10.8209 12.68 12.1469 12.68C13.473 12.68 14.546 11.62 14.546 10.31C14.546 9 13.4629 7.94 12.1469 7.94Z" fill="#FD7A22"/>
<path d="M12.1469 22.76C10.6488 22.76 9.14058 22.2 7.96637 21.09C4.98025 18.25 1.68033 13.72 2.92539 8.33C4.04899 3.44 8.37127 1.25 12.1469 1.25C12.1469 1.25 12.1469 1.25 12.1571 1.25C15.9327 1.25 20.255 3.44 21.3786 8.34C22.6136 13.73 19.3136 18.25 16.3275 21.09C15.1533 22.2 13.6451 22.76 12.1469 22.76ZM12.1469 2.75C9.20131 2.75 5.41552 4.3 4.41339 8.66C3.32017 13.37 6.31641 17.43 9.02923 20C10.7804 21.67 13.5236 21.67 15.2748 20C17.9775 17.43 20.9737 13.37 19.9007 8.66C18.8885 4.3 15.0926 2.75 12.1469 2.75Z" fill="#FD7A22"/>
</svg>
