<svg xmlns="http://www.w3.org/2000/svg" width="30" height="20" viewBox="0 0 30 20">
    <g id="egypt" transform="translate(0 -88.276)">
        <path id="Path_72" data-name="Path 72"
            d="M30,94.943H0V88.8a.522.522,0,0,1,.517-.526H29.483A.522.522,0,0,1,30,88.8v6.14Z"
            transform="translate(0 0)" fill="#dc2832" />
        <path id="Path_73" data-name="Path 73"
            d="M29.483,318.576H.517A.522.522,0,0,1,0,318.049v-6.14H30v6.14A.522.522,0,0,1,29.483,318.576Z"
            transform="translate(0 -210.3)" fill="#242424" />
        <rect id="Rectangle_48" data-name="Rectangle 48" width="30" height="6.666"
            transform="translate(0 94.943)" fill="#f5f5f5" />
        <path id="Path_74" data-name="Path 74"
            d="M231.116,213.456a.377.377,0,0,0-.495-.363l-.457.155-.111-.682a.827.827,0,0,0-.815-.7h-.428l-.447.56h.592l-.166.833-.482-.164a.377.377,0,0,0-.495.363v2.831l.666-.677-.314.958h-.352v.56h3.3v-.56h-.352l-.314-.958.666.677v-2.831Zm-1.927,3.111h-.444l.305-.829.139.18v.649Zm.55,0v-.649l.139-.18.305.829Zm-.275-1.015a2.067,2.067,0,0,1-.817-1.68.876.876,0,0,1,1.634,0A2.067,2.067,0,0,1,229.465,215.552Z"
            transform="translate(-214.465 -116.22)" fill="#f0c727" />
    </g>
</svg>
