<svg id="Layer_1" data-name="Layer 1" xmlns="http://www.w3.org/2000/svg" viewBox="0 0 64 64">
    <defs>
        <style>.cls-1{fill:#dbefe9;}.cls-2{fill:#a73a2f;}.cls-3{fill:#fff;}.cls-4{fill:#c09300;}
        </style>
    </defs>
    <rect class="cls-1" width="64" height="64" />
    <rect class="cls-2" x="8.27" y="16.17" width="47.47" height="10.55" />
    <rect class="cls-3" x="8.27" y="26.72" width="47.47" height="10.55" />
    <rect x="8.26" y="37.28" width="47.47" height="10.55" />
    <path class="cls-3"
        d="M32,32.11,35.11,35l-.22-5.18c0-.79-.71-.61-1.21-.33a1.8,1.8,0,0,1-1.68.11,1.8,1.8,0,0,1-1.68-.11c-.5-.28-1.18-.46-1.21.33L28.89,35,32,32.11Z" />
    <path class="cls-4"
        d="M35.11,35h0L32,32.15,28.91,35h0s0,0,0,0l.22-5.18c0-.49.29-.6.51-.6a1.7,1.7,0,0,1,.74.25,1.58,1.58,0,0,0,.88.25,2.58,2.58,0,0,0,.78-.14h0a2.58,2.58,0,0,0,.78.14,1.58,1.58,0,0,0,.88-.25,1.7,1.7,0,0,1,.74-.25c.22,0,.49.11.51.6L35.14,35s0,0,0,0Zm-5.52-5.75c-.29,0-.44.18-.46.54l-.21,5.12L32,32.09s0,0,0,0l3,2.81-.21-5.12c0-.36-.17-.54-.46-.54a1.61,1.61,0,0,0-.71.24,1.69,1.69,0,0,1-.91.26,2.38,2.38,0,0,1-.79-.15,2.38,2.38,0,0,1-.79.15,1.69,1.69,0,0,1-.91-.26A1.61,1.61,0,0,0,29.59,29.24Z" />
    <g id="w">
        <path class="cls-4" d="M29.46,29.6l-.21,5-.36.32.22-5.18a1.06,1.06,0,0,1,.35-.18Z" />
        <path class="cls-4" d="M29.89,30l-.18,4.22-.36.37.22-4.88.32.29Z" />
        <path class="cls-4" d="M30.29,30.28l-.15,3.52-.29.28.18-4c.07.07.22.17.26.21Z" />
        <path class="cls-4" d="M30.71,30.46l-.14,3-.28.23.14-3.34a1.08,1.08,0,0,0,.28.11Z" />
        <path class="cls-4" d="M31.1,30.46,31,33l-.29.28.11-2.75a.77.77,0,0,0,.28,0Z" />
    </g>
    <g id="w-2" data-name="w">
        <path class="cls-4" d="M34.54,29.6l.21,5,.36.32-.22-5.18a1.06,1.06,0,0,0-.35-.18Z" />
        <path class="cls-4" d="M34.11,30l.18,4.22.36.37-.22-4.88-.32.29Z" />
        <path class="cls-4" d="M33.71,30.28l.15,3.52.29.28-.18-4-.26.21Z" />
        <path class="cls-4" d="M33.29,30.46l.14,3,.28.23-.14-3.34a1.08,1.08,0,0,1-.28.11Z" />
        <path class="cls-4" d="M32.9,30.46,33,33l.29.28-.11-2.75a.77.77,0,0,1-.28,0Z" />
    </g>
    <path class="cls-4"
        d="M32.14,32.68l.43,2-.14.14-.15-.1L32,32.92l.1,1.76-.14.18-.14-.18.1-1.76-.24,1.76-.15.1-.14-.14.43-2Z" />
    <path class="cls-4"
        d="M32,34.89l-.17-.21.07-1.16-.16,1.17-.17.13-.17-.17.44-2h.32l.44,2-.17.17-.17-.13-.16-1.17.07,1.16Zm-.12-.22.12.15.12-.15L32,32.92h.05l.25,1.74.12.09.12-.11-.43-1.94h-.24l-.43,1.94.12.11.12-.09.25-1.74h0Z" />
    <g id="b">
        <path class="cls-3" d="M31,31.81l-.85,3.05,1.18.18.5-2.29L31,31.81Z" />
        <path class="cls-4"
            d="M31.36,35.06h0l-1.18-.18h0v0l.86-3a0,0,0,0,1,0,0s0,0,0,0l.83.93s0,0,0,0L31.38,35A0,0,0,0,1,31.36,35.06Zm-1.15-.23,1.12.18.5-2.25-.78-.89Z" />
        <path class="cls-4"
            d="M30.85,33.13h0l0,0-.11-.25.06,0,.08.21.53-.5,0,0-.56.53S30.86,33.13,30.85,33.13Z" />
        <path class="cls-4"
            d="M31.25,33.34h0l0,0-.11-1.1h.05l.11,1,.31-.41.05,0-.36.46S31.26,33.34,31.25,33.34Z" />
        <rect class="cls-4" x="31.53" y="33.02" width="0.06" height="0.7"
            transform="translate(-8.04 10.1) rotate(-16.16)" />
        <path class="cls-4"
            d="M31.44,34.65l-.11-.53-.23.36h0l0,0-.12-.37-.22.37h0l0,0-.18-.68s0,0,0,0l.37-.38h0s0,0,0,0l.1.36.23-.31h0l0,0,.1.54.35-.54.05,0-.39.59.12.58ZM30.93,34h0l0,0,.12.38.23-.36-.1-.52-.22.3h0l0,0-.1-.36-.32.33.16.6.23-.36A0,0,0,0,1,30.93,34Z" />
        <path class="cls-4"
            d="M31.15,35,31,34.67l-.19.31s0,0,0,0l0,0-.14-.46-.2.29-.05,0,.24-.34h0l0,0,.14.45.18-.3s0,0,0,0,0,0,0,0l.14.43Z" />
    </g>
    <g id="b-2" data-name="b">
        <path class="cls-3" d="M33,31.81l.85,3.05L32.64,35l-.5-2.29.83-.94Z" />
        <path class="cls-4"
            d="M32.64,35.06l0,0-.5-2.29s0,0,0,0L33,31.8s0,0,0,0l0,0,.86,3v0h0l-1.18.18Zm-.47-2.3.5,2.25,1.12-.18-.84-3Z" />
        <path class="cls-4" d="M33.15,33.13s0,0,0,0l-.56-.53,0,0,.53.5.08-.21.06,0-.11.25,0,0Z" />
        <path class="cls-4" d="M32.75,33.34h0l-.35-.46.05,0,.31.41.11-1h0l-.11,1.1s0,0,0,0Z" />
        <rect class="cls-4" x="32.09" y="33.34" width="0.7" height="0.06"
            transform="matrix(0.28, -0.96, 0.96, 0.28, -8.64, 55.23)" />
        <path class="cls-4"
            d="M32.56,34.65h-.05l.12-.58-.39-.59,0,0,.35.54.1-.54,0,0h0l.23.31.1-.36s0,0,0,0h0l.36.38a0,0,0,0,1,0,0l-.18.68,0,0h0l-.22-.37-.12.37,0,0h0l-.23-.36Zm.13-.61.23.36L33,34l0,0a0,0,0,0,1,0,0l.23.36.16-.6-.32-.33-.1.36,0,0h0l-.22-.3Z" />
        <path class="cls-4"
            d="M32.85,35H32.8l.14-.43s0,0,0,0,0,0,0,0l.18.3.14-.45,0,0h0l.24.34-.05,0-.2-.29-.14.46,0,0s0,0,0,0L33,34.67Z" />
    </g>
    <path class="cls-3"
        d="M32,36.22A9.59,9.59,0,0,0,34.26,36c.21,0,.21-.15.21-.29.21-.07.1-.32.25-.32-.15,0-.18-.25-.36-.21,0-.25-.25-.29-.47-.22a6.71,6.71,0,0,1-1.89.18A8.26,8.26,0,0,1,30.1,35c-.21-.07-.46,0-.46.22-.18,0-.21.25-.36.21.15,0,0,.25.25.32,0,.14,0,.25.22.29a9.44,9.44,0,0,0,2.25.22Z" />
    <path class="cls-4"
        d="M32,36.27a9.07,9.07,0,0,1-2.26-.22c-.24,0-.26-.17-.26-.3a.29.29,0,0,1-.15-.23s0-.07,0-.07h0a0,0,0,0,1,0-.06,0,0,0,0,1,.05,0h0s.06,0,.09-.08a.28.28,0,0,1,.19-.14.29.29,0,0,1,.32-.24l.21,0a6,6,0,0,0,1.5.16l.38,0a6.54,6.54,0,0,0,1.88-.18l.21,0a.29.29,0,0,1,.32.24.3.3,0,0,1,.19.14s.06.08.09.08h0a0,0,0,0,1,.05,0,0,0,0,0,1,0,.06h0s0,0,0,.07a.29.29,0,0,1-.15.23.26.26,0,0,1-.25.3A9.21,9.21,0,0,1,32,36.27Zm-2.6-.86a.32.32,0,0,1,0,.09c0,.07,0,.13.12.16a.05.05,0,0,1,0,.05c0,.14,0,.21.18.24h0a9.55,9.55,0,0,0,2.24.21A9,9,0,0,0,34.24,36h0c.17,0,.17-.1.17-.24a.05.05,0,0,1,0-.05c.09,0,.1-.09.12-.16a.32.32,0,0,1,0-.09.24.24,0,0,1-.08-.09c-.06-.06-.09-.1-.15-.09h0a0,0,0,0,1,0,0c0-.16-.12-.19-.22-.19a.57.57,0,0,0-.18,0,7.32,7.32,0,0,1-1.91.17h-.39A6.73,6.73,0,0,1,30.09,35a.57.57,0,0,0-.18,0c-.1,0-.22,0-.22.19a0,0,0,0,1,0,0h0c-.06,0-.09,0-.15.09A.24.24,0,0,1,29.4,35.41Z" />
    <path class="cls-3"
        d="M30.78,34.86a3.67,3.67,0,0,0,.87,0c.14,0,.24.25,0,.29a3.45,3.45,0,0,1-.86,0,7.49,7.49,0,0,1-.83-.18c-.25-.1-.07-.32.08-.29a3.87,3.87,0,0,0,.78.19Z" />
    <path class="cls-4"
        d="M31.36,35.22a4.85,4.85,0,0,1-.62,0c-.15,0-.56-.1-.82-.18s-.15-.16-.15-.2a.22.22,0,0,1,.2-.15h0a6.28,6.28,0,0,0,.78.18h0a5.77,5.77,0,0,0,.62.05h.23a.17.17,0,0,1,.17.16s0,.15-.2.18ZM30,34.7a.14.14,0,0,0-.14.1c0,.06,0,.1.11.14.25.07.66.14.81.17a3.49,3.49,0,0,0,.61,0h.24c.11,0,.16-.06.16-.12a.13.13,0,0,0-.11-.11l-.24,0a4.08,4.08,0,0,1-.63-.06A3.75,3.75,0,0,1,30,34.7Z" />
    <path class="cls-3"
        d="M33.22,34.86a3.61,3.61,0,0,1-.86,0c-.15,0-.25.25,0,.29a3.45,3.45,0,0,0,.86,0,7.49,7.49,0,0,0,.83-.18c.25-.1.07-.32-.08-.29a3.87,3.87,0,0,1-.78.19Z" />
    <path class="cls-4"
        d="M32.64,35.22h-.25c-.2,0-.21-.15-.2-.18a.17.17,0,0,1,.17-.16h.23a5.77,5.77,0,0,0,.62-.05,6.11,6.11,0,0,0,.79-.18h0a.22.22,0,0,1,.2.15.19.19,0,0,1-.14.2c-.27.08-.68.15-.83.18A4.85,4.85,0,0,1,32.64,35.22Zm-.28-.3a.14.14,0,0,0-.12.11c0,.06,0,.11.16.12h.24a3.49,3.49,0,0,0,.61,0c.15,0,.56-.1.82-.17.07,0,.11-.08.1-.14a.15.15,0,0,0-.16-.1,3.75,3.75,0,0,1-.79.18,4.08,4.08,0,0,1-.63.06Z" />
    <path class="cls-3" d="M29.89,34.71c-.22,0-.32.22-.25.36,0-.07.18-.07.21-.14s0-.11,0-.22Z" />
    <path class="cls-4"
        d="M29.64,35.1a0,0,0,0,1,0,0,.26.26,0,0,1,0-.28.24.24,0,0,1,.26-.11h0v0a.1.1,0,0,0,0,.09.27.27,0,0,1,0,.12.21.21,0,0,1-.12.08s-.08,0-.09.06l0,0Zm.2-.36a.19.19,0,0,0-.15.09.25.25,0,0,0,0,.18l.09,0s.08,0,.09-.06a.11.11,0,0,0,0-.08A.31.31,0,0,1,29.84,34.74Z" />
    <path class="cls-3"
        d="M30.75,35.37c0-.14.14-.12.14-.26s0-.18-.11-.18a.15.15,0,0,0-.14.14C30.61,35.21,30.75,35.23,30.75,35.37Z" />
    <path class="cls-4"
        d="M30.75,35.4a0,0,0,0,1,0,0,.22.22,0,0,0,0-.12.2.2,0,0,1-.06-.19.18.18,0,0,1,.17-.16c.09,0,.14.12.14.21a.2.2,0,0,1-.08.15.11.11,0,0,0-.06.11A0,0,0,0,1,30.75,35.4Zm0-.45a.13.13,0,0,0-.11.12h0a.14.14,0,0,0,0,.14l0,.06s0,0,.05-.05a.13.13,0,0,0,.06-.11C30.86,35.05,30.83,35,30.78,35Z" />
    <path class="cls-3" d="M31.77,35c.21,0,.19.29.09.43,0-.1-.18-.14-.18-.21s.16-.11.09-.22Z" />
    <path class="cls-4"
        d="M31.86,35.42h0l0,0s0-.07-.09-.1-.09-.07-.09-.11a.17.17,0,0,1,.07-.13s.05,0,0-.07a0,0,0,0,1,0,0h0a.19.19,0,0,1,.17.09.43.43,0,0,1-.06.38Zm0-.42a.12.12,0,0,1-.06.1s-.05,0-.05.08l.06.06.1.08a.39.39,0,0,0,0-.26A.13.13,0,0,0,31.82,35Z" />
    <path class="cls-3" d="M34.11,34.71c.22,0,.32.22.25.36,0-.07-.18-.07-.21-.14s0-.11,0-.22Z" />
    <path class="cls-4"
        d="M34.36,35.1h0l0,0s0,0-.09-.06a.21.21,0,0,1-.12-.08.27.27,0,0,1,0-.12.1.1,0,0,0,0-.09v0s0,0,0,0a.24.24,0,0,1,.26.11.28.28,0,0,1,0,.28A0,0,0,0,1,34.36,35.1Zm-.2-.36a.31.31,0,0,1,0,.09s0,0,0,.09a.15.15,0,0,0,.09,0l.09,0a.25.25,0,0,0,0-.18A.19.19,0,0,0,34.16,34.74Z" />
    <path class="cls-3"
        d="M33.25,35.37c0-.14-.14-.12-.14-.26s0-.18.11-.18a.15.15,0,0,1,.14.14c0,.14-.11.16-.11.3Z" />
    <path class="cls-4"
        d="M33.25,35.4a0,0,0,0,1,0,0,.14.14,0,0,0-.06-.11.17.17,0,0,1-.08-.15c0-.09.05-.21.14-.21a.18.18,0,0,1,.17.16.2.2,0,0,1-.06.19.22.22,0,0,0,0,.12A0,0,0,0,1,33.25,35.4Zm0-.45s-.08.1-.08.16a.13.13,0,0,0,.06.11l0,.05,0-.06a.14.14,0,0,0,0-.14h0A.13.13,0,0,0,33.22,35Z" />
    <path class="cls-3"
        d="M32.23,35c-.21,0-.19.29-.09.43,0-.1.18-.14.18-.21S32.16,35.07,32.23,35Z" />
    <path class="cls-4"
        d="M32.14,35.42h0a.43.43,0,0,1-.06-.38.19.19,0,0,1,.17-.09h0a0,0,0,0,1,0,0s0,0,0,.07a.17.17,0,0,1,.07.13s0,.07-.09.11-.09.06-.09.1l0,0Zm0-.42a.13.13,0,0,0-.07.06.34.34,0,0,0,0,.26l.1-.08.06-.06s0,0,0-.08A.12.12,0,0,1,32.18,35Z" />
    <path class="cls-3" d="M30,34.78a.39.39,0,0,1,.22.08L30,34.78Z" />
    <path class="cls-4"
        d="M30.18,34.88h0L30,34.8h0s0,0,0,0l0,0a.48.48,0,0,1,.22.08v0a0,0,0,0,1,0,0Z" />
    <path class="cls-3" d="M30.32,34.89a.79.79,0,0,1,.25.08l-.25-.08Z" />
    <path class="cls-4" d="M30.57,35h0l-.25-.07h0v0h0a1.23,1.23,0,0,1,.26.08v0l0,0Z" />
    <path class="cls-3" d="M31.61,35a.61.61,0,0,0-.25,0l.25,0Z" />
    <path class="cls-4" d="M31.36,35.09h0s0,0,0,0a.61.61,0,0,1,.26,0h0s0,0,0,0,0,0,0,0h0l-.25,0Z" />
    <path class="cls-3" d="M31.21,35A.27.27,0,0,0,31,35Z" />
    <path class="cls-4"
        d="M31.21,35.06H31s0,0,0,0,0,0,0,0a.33.33,0,0,1,.15,0,.21.21,0,0,1,.13,0s0,0,0,0Z" />
    <path class="cls-3" d="M34,34.78a.39.39,0,0,0-.22.08Z" />
    <path class="cls-4" d="M33.82,34.88h0a0,0,0,0,1,0,0,.45.45,0,0,1,.23-.08l0,0,0,0-.21.07Z" />
    <path class="cls-3" d="M33.68,34.89a.79.79,0,0,0-.25.08l.25-.08Z" />
    <path class="cls-4" d="M33.43,35l0,0s0,0,0,0a1.08,1.08,0,0,1,.26-.08h0v0h0l-.25.07Z" />
    <path class="cls-3" d="M32.39,35a.61.61,0,0,1,.25,0l-.25,0Z" />
    <path class="cls-4" d="M32.64,35.09h0l-.25,0h0v0s0,0,0,0h0a.56.56,0,0,1,.25,0l0,0s0,0,0,0Z" />
    <path class="cls-3" d="M32.79,35S33,35,33,35Z" />
    <path class="cls-4"
        d="M33,35.06h-.25s0,0,0,0v0a.22.22,0,0,1,.13,0,.33.33,0,0,1,.15,0s0,0,0,0Z" />
    <path class="cls-4" d="M29.9,35.35s0,0,0,0,0-.05.05,0,0,0,0,0,0,0,0,0h0Z" />
    <path class="cls-4" d="M32.37,35.53l0,0s0,0,0,0l0,0a0,0,0,0,1,0,.05Z" />
    <path class="cls-4" d="M32.39,35.64s0,0,0,0,0,0,0,0h0s0,0,0,0a.05.05,0,0,1,0,0Z" />
    <path class="cls-4"
        d="M30.1,35.15l-.05,0s-.06,0-.09,0-.06,0-.07,0a.06.06,0,0,0,.08,0,0,0,0,0,1,.07,0s0,.07,0,.1a.14.14,0,0,1,0,.06h-.06a.08.08,0,0,0-.07,0,.18.18,0,0,0,0,.09s0,0,.07,0l.09,0,.14,0,.22.05h0s0,0,0-.05,0-.1,0-.15,0-.07,0-.06l-.07,0s0,0,0,.05a.19.19,0,0,1,0,.08s-.06,0-.08,0-.08,0-.05,0a.11.11,0,0,1,0-.08s0-.06,0-.09,0,0-.07,0-.07,0,0,0,0,0,0,.08,0,0-.07,0-.06,0,0-.05,0,0,0-.08l0-.09,0-.08s0-.06,0-.09a0,0,0,0,0,0,0Zm-.16.33h0s0,0,0,0h0v0Z" />
    <path class="cls-4" d="M29.89,35.7s0,0,0-.06,0,0,0,0,0,0,0,.05h-.06Z" />
    <path class="cls-4" d="M30,35.74s0,0,0-.05,0,0,0,0,0,0,0,0,0,0,0,0,0,0,0,0Z" />
    <path class="cls-4" d="M34,35.75a0,0,0,0,1,0,0s0,0,0,0,0,0,0,0,0,0,0,.05l0,0Z" />
    <path class="cls-4" d="M30.21,35.8a.05.05,0,0,1,0,0s0,0,0,0l0,0h0s0,0,0,.05,0,0-.06,0Z" />
    <path class="cls-4"
        d="M31.2,35.84h0s0,0,0-.08v-.07s0-.08,0-.12a.17.17,0,0,1,0-.07s0-.06,0-.09,0,0,0,0,0,.05.06.07,0,0,0,0a0,0,0,0,0,0,.05.09.09,0,0,0,0,0,.28.28,0,0,0,0,.09.22.22,0,0,0,0,.08s0,0,0,.06,0,0,0,.05a0,0,0,0,1-.05,0Z" />
    <path class="cls-4"
        d="M32.53,35.4l-.06.06s0,0,0,0a.28.28,0,0,1,0,.09.17.17,0,0,1,0,.07s0,0-.06,0a.1.1,0,0,0,0,0,.1.1,0,0,0,0,.07s0,0,0,.06h.1l.16,0h.1s0,0,0,0,0-.06,0-.09,0-.07,0-.1,0,0-.05,0,0,0,0,0,0,0,0,.05,0,0,0,.07,0,0,0,0-.06,0-.07,0a.13.13,0,0,1,0-.06s0-.08,0-.12a.77.77,0,0,0,0-.15s0-.06,0-.05Zm0,.37h0v0h0a0,0,0,0,1,0,0Z" />
    <path class="cls-4"
        d="M31.16,35.35s0,0-.06,0,0,0,0,0v0s0,.06,0,.1,0,.08,0,.12,0,.08,0,.12,0,0-.05,0v0s0,0,0-.06-.05,0,0,0H31c.05,0,.05-.05,0-.07s0,0-.06-.07a.12.12,0,0,0-.05-.1.13.13,0,0,0-.11.08l-.06,0s-.08.06,0,.09.1,0,.06.05a.06.06,0,0,1-.08,0s-.07,0-.07-.06,0-.07,0-.1-.05,0-.05,0,0,.06,0,.09,0,.07,0,.1-.05,0-.09,0-.07,0-.05,0a.15.15,0,0,0,.11,0,.15.15,0,0,0,.09-.06s.07,0,.1,0,.07,0,.1,0,.06-.07.07,0a.05.05,0,0,0,.07,0s0,0,0,.05a.09.09,0,0,0,.07.08h0s.07,0,.08-.06a.29.29,0,0,0,0-.1.77.77,0,0,0,0-.15s0-.09,0-.14,0-.07,0-.11,0,0,0,0Zm-.31.19s0,0,0,0,0,0,0,0,0,0,0,0h0l-.05,0h0l0,0,0,0Z" />
    <path class="cls-4"
        d="M33.82,35.19h-.07s-.08,0,0,.07.07,0,.11,0,.07.08.08.14a.83.83,0,0,0,0,.15c0,.05,0,.08-.07,0s-.09-.07-.12,0,0,.07-.07.09-.07,0-.09-.08-.08,0-.12,0,0-.11,0-.13-.1.07,0,.1,0,.06,0,.09a.23.23,0,0,0,0,.14c-.06,0-.07,0-.08-.08s0,0-.07,0-.07.06-.1.09v.09s.06,0,.09,0,.06,0,0,.06-.1,0-.09.06h.07s.11,0,.11-.1.08,0,.11-.05.11,0,.12,0,.1.07.13,0a.09.09,0,0,0,0-.1s.06,0,.08,0,.09,0,.13,0,0-.07.1-.07l.24-.07c.06,0,0-.06,0-.08s-.09.07-.14,0a.27.27,0,0,1,0-.14c0-.07,0-.14-.06-.18a.12.12,0,0,0-.11,0Zm-.31.42h0a.05.05,0,0,1,0,.05h0l0,0v0s0,0,0,0Zm.3,0s0,0,0,0,0,0,0,0h0s0,0,0,0S33.79,35.63,33.81,35.63Zm-.4,0h0s0,0,0,0v0s0,0,0,0,0,0,0,0a0,0,0,0,1,0,0Zm-.25.07a0,0,0,0,1,0,0s0,0,0,0h0Zm.41,0h0s0,0,0,0h0Z" />
    <path class="cls-4"
        d="M32.8,36s0,0,0,0,0,0,0,0a.13.13,0,0,0,.06,0s0,0,0,0a.13.13,0,0,0,0-.06s0,0,0,0,0,0,0,0a.05.05,0,0,1,0,0s0,0,0-.06a0,0,0,0,1,0,0l0,0a.09.09,0,0,1,0,.06.05.05,0,0,1,0,0s0,0,0,.05a.22.22,0,0,1,0,.08l0,0a.09.09,0,0,1-.05,0l0,0H32.8Z" />
    <path class="cls-4"
        d="M32.49,36a0,0,0,0,1,0-.06s0,0,.07,0,0,0,0,0l0,0h0s0,0,0,0,0,0,0,0h0s0,0,0,0h0l0,0h-.06Z" />
    <path class="cls-4"
        d="M31.6,35.59a.06.06,0,0,0-.06,0s0,.07,0,.1,0,.07-.06,0a.75.75,0,0,0-.06-.13s-.05.05-.08.07a.33.33,0,0,1,.06.1.11.11,0,0,1-.05.11s-.08,0-.12,0,0,0,.06,0a.18.18,0,0,0,.13,0s0-.08.07-.08a1.7,1.7,0,0,1,.22,0s.09,0,.12,0a.12.12,0,0,0,.08.1s0,0,.07,0,0-.07.06-.09h.22s0,0,0,0a.28.28,0,0,0,0-.09s0-.08,0-.11-.07,0-.11,0a.13.13,0,0,0-.08.11s-.06,0,0,0,0,0,0,0-.06,0-.09,0H31.8a.25.25,0,0,1-.12,0c-.05,0,0,0-.05-.07Zm.09.16H32v.1a0,0,0,0,1,0,0h0l0,0v-.06h-.24a0,0,0,0,1,0,0s0,0,0,0Zm.51,0s0,0,0,0v0s0,0,0,0h-.05a0,0,0,0,1,0,0l0,0Z" />
    <path class="cls-3"
        d="M32,33.22a3.4,3.4,0,0,0,1.34-2.78h-.11A2.21,2.21,0,0,1,32,30.06a2.49,2.49,0,0,1-1.24.39h-.11A3.4,3.4,0,0,0,32,33.22Z" />
    <path class="cls-4"
        d="M32,33.26l0,0a3.47,3.47,0,0,1-1.35-2.8v0h.13A2.48,2.48,0,0,0,32,30l0,0,0,0a2.23,2.23,0,0,0,1.2.39h.13v0A3.46,3.46,0,0,1,32,33.24Zm-1.32-2.79A3.44,3.44,0,0,0,32,33.19a3.44,3.44,0,0,0,1.32-2.72h-.09A2.35,2.35,0,0,1,32,30.09a2.59,2.59,0,0,1-1.24.39Z" />
    <path class="cls-3"
        d="M33.22,30.56h0A2.45,2.45,0,0,1,32,30.21a2.69,2.69,0,0,1-1.2.36h0v.19a4.64,4.64,0,0,0,.11.65A3.24,3.24,0,0,0,32,33.07a3.16,3.16,0,0,0,1.1-1.67,3.55,3.55,0,0,0,.12-.65v-.19Z" />
    <path class="cls-4"
        d="M32,33.1h0a3.3,3.3,0,0,1-1.12-1.68,3.79,3.79,0,0,1-.11-.66v-.21h0A2.76,2.76,0,0,0,32,30.19h0a2.36,2.36,0,0,0,1.16.35h.06v.21a3.82,3.82,0,0,1-.12.66A3.28,3.28,0,0,1,32,33.09Zm-1.2-2.51v.16a3.84,3.84,0,0,0,.11.65A3.16,3.16,0,0,0,32,33a3.08,3.08,0,0,0,1.08-1.65,3.55,3.55,0,0,0,.12-.65v-.15h0A2.44,2.44,0,0,1,32,30.23a2.69,2.69,0,0,1-1.2.36Z" />
    <path class="cls-4"
        d="M31.52,30.43a2.92,2.92,0,0,1-.71.14h0v.19a4.64,4.64,0,0,0,.11.65,3.21,3.21,0,0,0,.63,1.2V30.43Z" />
    <path class="cls-4"
        d="M32.45,30.42v2.22a3.21,3.21,0,0,0,.65-1.24,3.55,3.55,0,0,0,.12-.65v-.19h0a2.77,2.77,0,0,1-.73-.15Z" />
    <path class="cls-3"
        d="M32.55,29.89s0-.16,0-.16.38.1.38.1c-.18-.08-.36-.68-.34-1.15s-.07-.67-.14-.74a1.13,1.13,0,0,0-.57-.18.07.07,0,0,0-.09.08.72.72,0,0,0-.48,0c-.09.06-.11.34,0,.29s.28,0,.37.12a1.23,1.23,0,0,1,0,.82,2.79,2.79,0,0,1-.45.79,1,1,0,0,0,.43-.16l-.06.25a1.61,1.61,0,0,0,.33-.23l.18.19a1.83,1.83,0,0,1,.18-.19.64.64,0,0,0,.38.18Z" />
    <path class="cls-4"
        d="M31.44,30l0-.24a.86.86,0,0,1-.38.13h-.06l0-.05a2.75,2.75,0,0,0,.44-.78,1.16,1.16,0,0,0,0-.8c-.05-.07-.12-.16-.21-.16a.21.21,0,0,0-.12.05h0s0,0,0,0a.37.37,0,0,1,.08-.3.63.63,0,0,1,.48,0,.05.05,0,0,1,0,0,.11.11,0,0,1,.1,0,1.14,1.14,0,0,1,.58.19c.08.08.17.27.15.76a1.63,1.63,0,0,0,.32,1.13v.05a1,1,0,0,1-.32-.06c0,.08,0,.1,0,.1l0,0h0a.75.75,0,0,1-.38-.17,1.38,1.38,0,0,0-.15.17l0,0-.19-.19a1.64,1.64,0,0,1-.32.22Zm.14-.36-.06.26c.15-.09.27-.2.28-.2l0,0,.17.19.17-.17,0,0v0a.64.64,0,0,0,.34.17.84.84,0,0,0,0-.12l0,0c0,.05.17.07.27.09a2,2,0,0,1-.27-1.12c0-.49-.08-.66-.14-.72a1,1,0,0,0-.55-.17h-.05a0,0,0,0,0,0,0v.05h0a.76.76,0,0,0-.47,0,.4.4,0,0,0-.06.13v.11c.13-.1.27-.05.4.13a1.23,1.23,0,0,1,0,.84,2.58,2.58,0,0,1-.41.76,1.24,1.24,0,0,0,.35-.15Z" />
    <path class="cls-4"
        d="M31.56,29.71l0,0a2.61,2.61,0,0,0,.28-.93h.05A2.53,2.53,0,0,1,31.56,29.71Z" />
    <path class="cls-4"
        d="M31.84,29.73l-.05,0a3.54,3.54,0,0,0,.17-1h0A3.66,3.66,0,0,1,31.84,29.73Z" />
    <path class="cls-4" d="M32.15,29.72a6.92,6.92,0,0,1,0-1h0a6.41,6.41,0,0,0,.05.94Z" />
    <path class="cls-4" d="M32.49,29.75a2.89,2.89,0,0,1-.22-.95h.06a2.54,2.54,0,0,0,.21.92Z" />
    <path class="cls-4"
        d="M31.64,28.39a.27.27,0,0,0,0-.15c-.09-.13-.22-.24-.37-.12s.05-.16.16-.17.27.07.44.36c0,0-.12,0-.15,0s0,.08,0,.08Z" />
    <path class="cls-4"
        d="M31.64,28.39a0,0,0,0,1,0,0,.34.34,0,0,0,0-.12q-.18-.25-.36-.12l0,0v0s.05-.17.17-.17h0a.6.6,0,0,1,.44.35v0h-.17a.09.09,0,0,0,0,.05v0Zm-.28-.33c.08,0,.16.06.24.17a.3.3,0,0,1,0,.1l0,0h.15c-.2-.33-.4-.34-.42-.34h0a.21.21,0,0,0-.15.14A.19.19,0,0,1,31.36,28.06Z" />
    <path class="cls-4"
        d="M31.21,27.92a.15.15,0,0,1,.06-.09.74.74,0,0,1,.49,0s0-.09.08-.08a1.1,1.1,0,0,1,.57.18.23.23,0,0,1,.07.11h0c0-.07-.17-.06-.2-.06l-.14,0a.3.3,0,0,0-.1,0s0,.07-.07.07,0,0,0,0,0,0-.05,0-.12,0-.22-.11a.3.3,0,0,0-.27-.09.21.21,0,0,0-.17.08Z" />
    <path class="cls-4"
        d="M32,28.13s0,0-.06,0h0l0,0v0a.47.47,0,0,1-.24-.11.27.27,0,0,0-.21-.09h-.05a.21.21,0,0,0-.17.08h0a.21.21,0,0,1,.06-.1.4.4,0,0,1,.18,0,1.4,1.4,0,0,1,.31,0,.11.11,0,0,1,0,0,.12.12,0,0,1,.09,0,1.13,1.13,0,0,1,.57.18.41.41,0,0,1,.07.11h0c0-.05-.12-.05-.16-.05h-.07l-.1,0h0l-.09,0,0,0S32,28.13,32,28.13ZM31.88,28s0,0,0,0v0h0s0,0,0,0l0,0a.19.19,0,0,1,.1,0h.18a.28.28,0,0,1,.15,0l-.05-.08a1.24,1.24,0,0,0-.57-.17.08.08,0,0,0-.07,0,.13.13,0,0,0,0,.05h0a1.4,1.4,0,0,0-.31-.05.27.27,0,0,0-.17,0,.15.15,0,0,0,0,.06.23.23,0,0,1,.15-.06h.05a.33.33,0,0,1,.22.09c.1.08.18.12.22.11Z" />
    <path class="cls-3"
        d="M32,27.93A.06.06,0,0,1,32,28,0,0,0,0,1,32,28a.06.06,0,0,1-.06-.05A.06.06,0,0,1,32,27.93Z" />
</svg>